<?xml version="1.0" standalone="no"?>
<!DOCTYPE svg PUBLIC "-//W3C//DTD SVG 1.1//EN"
"http://www.w3.org/Graphics/SVG/1.1/DTD/svg11.dtd">

<svg width="336" height="228" view_box="0 0 336 228"
xmlns="http://www.w3.org/2000/svg"
xmlns:link="http://www.w3.org/1999/xlink">\n\n<desc>Généré par Mocodo 2.3.7 le Tue, 22 Oct 2019 13:14:51</desc>

<rect id="frame" x="0" y="0" width="336" height="228" fill="#f7f7f7" stroke="none" stroke-width="0"/>

<!-- Association is written by -->
<line x1="53" y1="68" x2="173" y2="177" stroke="#de77ae" stroke-width="2"/>
<text x="102" y="106.557875134" fill="#4d9221" font-family="Verdana" font-size="12">0,1</text>
<line x1="288" y1="177" x2="173" y2="177" stroke="#de77ae" stroke-width="2"/>
<text x="230" y="194.0" fill="#4d9221" font-family="Verdana" font-size="12">0,N</text>
<g id="association-is written by">
	<path d="M 204 152 a 14 14 90 0 1 14 14 V 177 h -90 V 166 a 14 14 90 0 1 14 -14" fill="#f1b6da" stroke="#f1b6da" stroke-width="0"/>
	<path d="M 218 177.0 v 11 a 14 14 90 0 1 -14 14 H 142 a 14 14 90 0 1 -14 -14 V 177.0 H 90" fill="#fde0ef" stroke="#fde0ef" stroke-width="0"/>
	<rect x="128" y="152" width="90" height="50" fill="none" rx="14" stroke="#de77ae" stroke-width="2"/>
	<line x1="128" y1="177" x2="218" y2="177" stroke="#de77ae" stroke-width="1"/>
	<text x="135" y="169.7" fill="#000000" font-family="Verdana" font-size="12">is written by</text>
</g>

<!-- Association is related to -->
<line x1="53" y1="68" x2="173" y2="68" stroke="#de77ae" stroke-width="2"/>
<text x="102" y="60.0" fill="#4d9221" font-family="Verdana" font-size="12">1,1</text>
<line x1="288" y1="68" x2="173" y2="68" stroke="#de77ae" stroke-width="2"/>
<text x="222" y="85.0" fill="#4d9221" font-family="Verdana" font-size="12">0,N</text>
<g id="association-is related to">
	<path d="M 203 43 a 14 14 90 0 1 14 14 V 68 h -88 V 57 a 14 14 90 0 1 14 -14" fill="#f1b6da" stroke="#f1b6da" stroke-width="0"/>
	<path d="M 217 68.0 v 11 a 14 14 90 0 1 -14 14 H 143 a 14 14 90 0 1 -14 -14 V 68.0 H 88" fill="#fde0ef" stroke="#fde0ef" stroke-width="0"/>
	<rect x="129" y="43" width="88" height="50" fill="none" rx="14" stroke="#de77ae" stroke-width="2"/>
	<line x1="129" y1="68" x2="217" y2="68" stroke="#de77ae" stroke-width="1"/>
	<text x="136" y="60.7" fill="#000000" font-family="Verdana" font-size="12">is related to</text>
</g>

<!-- Entity CATEGORY -->
<g id="entity-CATEGORY">
	<g id="frame-CATEGORY">
		<rect x="249" y="43" width="78" height="25" fill="#b8e186" stroke="#b8e186" stroke-width="0"/>
		<rect x="249" y="68.0" width="78" height="25" fill="#e6f5d0" stroke="#e6f5d0" stroke-width="0"/>
		<rect x="249" y="43" width="78" height="50" fill="none" stroke="#7fbc41" stroke-width="2"/>
		<line x1="249" y1="68" x2="327" y2="68" stroke="#7fbc41" stroke-width="1"/>
	</g>
	<text x="254" y="60.7" fill="#000000" font-family="Verdana" font-size="12">CATEGORY</text>
	<text x="254" y="85.8" fill="#000000" font-family="Verdana" font-size="12">label</text>
	<line x1="254" y1="88" x2="283" y2="88" stroke="#000000" stroke-width="1"/>
</g>

<!-- Entity POST -->
<g id="entity-POST">
	<g id="frame-POST">
		<rect x="9" y="9" width="88" height="25" fill="#b8e186" stroke="#b8e186" stroke-width="0"/>
		<rect x="9" y="34.0" width="88" height="93" fill="#e6f5d0" stroke="#e6f5d0" stroke-width="0"/>
		<rect x="9" y="9" width="88" height="118" fill="none" stroke="#7fbc41" stroke-width="2"/>
		<line x1="9" y1="34" x2="97" y2="34" stroke="#7fbc41" stroke-width="1"/>
	</g>
	<text x="36" y="26.7" fill="#000000" font-family="Verdana" font-size="12">POST</text>
	<text x="14" y="51.7" fill="#000000" font-family="Verdana" font-size="12">title</text>
	<line x1="14" y1="54" x2="38" y2="54" stroke="#000000" stroke-width="1"/>
	<text x="14" y="68.8" fill="#000000" font-family="Verdana" font-size="12">summary</text>
	<text x="14" y="85.8" fill="#000000" font-family="Verdana" font-size="12">content</text>
	<text x="14" y="102.8" fill="#000000" font-family="Verdana" font-size="12">publish_date</text>
	<text x="14" y="119.8" fill="#000000" font-family="Verdana" font-size="12">view_count</text>
</g>

<!-- Entity AUTHOR -->
<g id="entity-AUTHOR">
	<g id="frame-AUTHOR">
		<rect x="257" y="135" width="62" height="25" fill="#b8e186" stroke="#b8e186" stroke-width="0"/>
		<rect x="257" y="160.0" width="62" height="59" fill="#e6f5d0" stroke="#e6f5d0" stroke-width="0"/>
		<rect x="257" y="135" width="62" height="84" fill="none" stroke="#7fbc41" stroke-width="2"/>
		<line x1="257" y1="160" x2="319" y2="160" stroke="#7fbc41" stroke-width="1"/>
	</g>
	<text x="262" y="152.7" fill="#000000" font-family="Verdana" font-size="12">AUTHOR</text>
	<text x="262" y="177.8" fill="#000000" font-family="Verdana" font-size="12">name</text>
	<line x1="262" y1="180" x2="297" y2="180" stroke="#000000" stroke-width="1"/>
	<text x="262" y="194.8" fill="#000000" font-family="Verdana" font-size="12">image</text>
	<text x="262" y="211.8" fill="#000000" font-family="Verdana" font-size="12">email</text>
</g>
</svg>